<?xml version="1.0" encoding="UTF-8"?>
<svg width="23px" height="22px" viewBox="0 0 23 22" version="1.1" xmlns="http://www.w3.org/2000/svg" xmlns:xlink="http://www.w3.org/1999/xlink">
    <!-- Generator: Sketch 42 (36781) - http://www.bohemiancoding.com/sketch -->
    <title>f</title>
    <desc>Created with Sketch.</desc>
    <defs>
        <polygon id="path-1" points="8.23970037e-06 21.9913483 21.9912742 21.9913483 21.9912742 3.29588015e-05 8.23970037e-06 3.29588015e-05"></polygon>
    </defs>
    <g id="texchange" stroke="none" stroke-width="1" fill="none" fill-rule="evenodd">
        <g id="login" transform="translate(-330.000000, -411.000000)">
            <g id="buttons" transform="translate(312.000000, 392.000000)">
                <g id="facebook">
                    <g id="f" transform="translate(18.140625, 19.000000)">
                        <mask id="mask-2" fill="white">
                            <use xlink:href="#path-1"></use>
                        </mask>
                        <g id="Clip-2"></g>
                        <path d="M20.7775663,3.29588015e-05 L1.2137161,3.29588015e-05 C0.543334082,3.29588015e-05 8.23970037e-06,0.543358801 8.23970037e-06,1.21374082 L8.23970037e-06,20.777591 C8.23970037e-06,21.4478906 0.543334082,21.9913813 1.2137161,21.9913813 L11.7462779,21.9913813 L11.7462779,13.4751566 L8.88034532,13.4751566 L8.88034532,10.1562052 L11.7462779,10.1562052 L11.7462779,7.70860225 C11.7462779,4.86821273 13.4810644,3.32153858 16.0149371,3.32153858 C17.2287273,3.32153858 18.2718734,3.41184569 18.575836,3.45222022 L18.575836,6.42065468 L16.8184727,6.42147865 C15.4404652,6.42147865 15.1735813,7.07628764 15.1735813,8.0372015 L15.1735813,10.1562052 L18.4601506,10.1562052 L18.0322629,13.4751566 L15.1735813,13.4751566 L15.1735813,21.9913813 L20.7775663,21.9913813 C21.4478659,21.9913813 21.9912742,21.4478906 21.9912742,20.777591 L21.9912742,1.21374082 C21.9912742,0.543358801 21.4478659,3.29588015e-05 20.7775663,3.29588015e-05" id="Fill-1" fill="#FEFEFE" mask="url(#mask-2)"></path>
                    </g>
                </g>
            </g>
        </g>
    </g>
</svg>