<?xml version="1.0" encoding="UTF-8"?>
<svg width="17px" height="17px" viewBox="0 0 17 17" version="1.1" xmlns="http://www.w3.org/2000/svg" xmlns:xlink="http://www.w3.org/1999/xlink">
    <!-- Generator: Sketch 42 (36781) - http://www.bohemiancoding.com/sketch -->
    <title>LinkedIn__x28_alt_x29_</title>
    <desc>Created with Sketch.</desc>
    <defs></defs>
    <g id="texchange" stroke="none" stroke-width="1" fill="none" fill-rule="evenodd">
        <g id="contact" transform="translate(-354.000000, -675.000000)" fill-rule="nonzero" fill="#2E2E2E">
            <g id="Joe" transform="translate(245.000000, 612.000000)">
                <g id="copy" transform="translate(108.000000, 10.761719)">
                    <path d="M16.318543,53.2246094 L2.68220096,53.2246094 C2.02923767,53.2246094 1.5,53.7377024 1.5,54.3709872 L1.5,68.077934 C1.5,68.7112559 2.02942366,69.2247954 2.68220096,69.2247954 L16.318543,69.2247954 C16.9713575,69.2247954 17.5,68.7109211 17.5,68.077934 L17.5,54.3709872 C17.5,53.7378884 16.9713575,53.2246094 16.318543,53.2246094 Z M6.35074387,66.6178525 L3.93325824,66.6178525 L3.93325824,59.3939649 L6.35074387,59.3939649 L6.35074387,66.6178525 Z M5.14224285,58.4070614 L5.12598666,58.4070614 C4.31529738,58.4070614 3.78977966,57.8526397 3.78977966,57.1585337 C3.78977966,56.4504407 4.33073518,55.9110476 5.15749466,55.9110476 C5.98432854,55.9110476 6.49292047,56.4502919 6.50899066,57.1585337 C6.50899066,57.8527885 5.98451453,58.4070614 5.14224285,58.4070614 Z M15.0650678,66.6178525 L12.6483633,66.6178525 L12.6483633,62.7528217 C12.6483633,61.7816537 12.2982042,61.1189813 11.4242385,61.1189813 C10.7556514,61.1189813 10.3587697,61.5660452 10.1844899,61.9976713 C10.1199115,62.1518262 10.1039157,62.3674346 10.1039157,62.5827455 L10.1039157,66.6177037 L7.68765766,66.6177037 C7.68765766,66.6177037 7.71927726,60.0713682 7.68765766,59.3938533 L10.1042877,59.3938533 L10.1042877,60.4179934 C10.4250964,59.9258809 10.9983783,59.2238886 12.2817248,59.2238886 C13.8723766,59.2238886 15.0650678,60.2557663 15.0650678,62.4756481 L15.0650678,66.6178525 Z M10.0886639,60.479505 C10.0997639,60.461305 10.1152639,60.439405 10.1306639,60.418105 L10.1306639,60.479505 L10.0886639,60.479505 Z" id="LinkedIn__x28_alt_x29_"></path>
                </g>
            </g>
        </g>
    </g>
</svg>