<?xml version="1.0" encoding="UTF-8"?>
<svg width="17px" height="14px" viewBox="0 0 17 14" version="1.1" xmlns="http://www.w3.org/2000/svg" xmlns:xlink="http://www.w3.org/1999/xlink">
    <!-- Generator: Sketch 42 (36781) - http://www.bohemiancoding.com/sketch -->
    <title>Shape</title>
    <desc>Created with Sketch.</desc>
    <defs></defs>
    <g id="texchange" stroke="none" stroke-width="1" fill="none" fill-rule="evenodd">
        <g id="contact" transform="translate(-405.000000, -677.000000)" fill-rule="nonzero" fill="#2E2E2E">
            <g id="Joe" transform="translate(245.000000, 612.000000)">
                <g id="copy" transform="translate(108.000000, 10.761719)">
                    <path d="M68.5,56.264106 C67.9111101,56.5250476 67.2792398,56.7020152 66.6153433,56.7810219 C67.2932268,56.3750866 67.8121296,55.7312163 68.0580646,54.9663523 C67.4221943,55.3422745 66.7203108,55.6152422 65.9724403,55.7632163 C65.3735635,55.1243395 64.521719,54.7264042 63.5768808,54.7264042 C61.7642243,54.7264042 60.2944964,56.1961321 60.2944964,58.0077952 C60.2944964,58.2647368 60.3234899,58.5156914 60.37949,58.7556657 C57.6520084,58.618672 55.2334685,57.3119247 53.6147731,55.3262744 C53.3318184,55.8101968 53.1708508,56.374067 53.1708508,56.9759765 C53.1708508,58.1147757 53.7507471,59.1195878 54.6305917,59.7074581 C54.0926823,59.6894711 53.586773,59.541497 53.1438703,59.2955358 L53.1438703,59.3365294 C53.1438703,60.9262313 54.275663,62.2529786 55.7763714,62.5549398 C55.5014167,62.6289269 55.2114816,62.6699204 54.9115334,62.6699204 C54.6995853,62.6699204 54.4946176,62.6489269 54.29365,62.6089269 C54.7115592,63.9136872 55.923352,64.8624992 57.3590929,64.8885123 C56.2362937,65.7683569 54.8205528,66.2912597 53.282851,66.2912597 C53.0179093,66.2912597 52.7569416,66.2752596 52.5,66.2462661 C53.9527344,67.1791043 55.677417,67.7230006 57.531067,67.7230006 C63.5689331,67.7230006 66.8693307,62.7219205 66.8693307,58.3847369 L66.8583241,57.9598212 C67.5031879,57.4998728 68.0610712,56.9219895 68.5,56.264106 Z" id="Shape"></path>
                </g>
            </g>
        </g>
    </g>
</svg>
