<?xml version="1.0" encoding="UTF-8"?>
<svg width="16px" height="16px" viewBox="0 0 16 16" version="1.1" xmlns="http://www.w3.org/2000/svg" xmlns:xlink="http://www.w3.org/1999/xlink">
    <!-- Generator: Sketch 42 (36781) - http://www.bohemiancoding.com/sketch -->
    <title>Dribbble</title>
    <desc>Created with Sketch.</desc>
    <defs></defs>
    <g id="texchange" stroke="none" stroke-width="1" fill="none" fill-rule="evenodd">
        <g id="contact" transform="translate(-686.000000, -676.000000)" fill-rule="nonzero" fill="#2E2E2E">
            <g id="Spencer" transform="translate(555.000000, 591.500000)">
                <g id="copy" transform="translate(103.000000, 0.738281)">
                    <path d="M35.9996838,83.7481399 C31.5813139,83.7484747 28,87.3300118 28,91.7484933 C28,96.1661936 31.5813139,99.7481399 35.9996838,99.7481399 C40.4180537,99.7481399 43.9995164,96.1661936 44,91.7484933 C43.9995164,87.3300118 40.4180537,83.7484747 35.9996838,83.7481399 Z M40.9013826,87.8960717 C41.6819331,88.8872439 42.1706559,90.1145565 42.2322949,91.4548429 C41.3291732,91.2631556 40.4758612,91.16986 39.6803567,91.16986 L39.6803567,91.169674 L39.6744793,91.169674 C39.034021,91.169674 38.4329566,91.2278163 37.8664503,91.3282913 C37.7287761,90.9908576 37.5892048,90.6667411 37.4485919,90.3563139 C38.7102393,89.8029389 39.9212214,89.0149859 40.9013826,87.8960717 Z M35.9996838,85.5069171 C37.4718786,85.5069171 38.822432,86.021605 39.8916853,86.8784509 C39.0734521,87.8580542 37.9934483,88.5675169 36.8267332,89.0684783 C36.0069376,87.4832352 35.2147811,86.349181 34.6732726,85.6558627 C35.1019188,85.5607444 35.5443658,85.5069171 35.9996838,85.5069171 Z M33.2428897,86.1575308 C33.6761114,86.6692427 34.5434847,87.7947783 35.4698931,89.5520676 C33.5857918,90.1129197 31.6885592,90.2446792 30.5406296,90.2443444 C30.5078944,90.2443444 30.4755311,90.2443444 30.443763,90.2440096 L30.4427214,90.2440096 C30.2493973,90.2440096 30.0831541,90.2409593 29.944364,90.2367186 C30.3922049,88.4446852 31.6198895,86.9605495 33.2428897,86.1575308 Z M29.7582565,91.7484933 C29.7582565,91.7191431 29.7592981,91.6893094 29.7610464,91.6585828 C29.9392677,91.6651671 30.1678195,91.6708214 30.4429074,91.6708214 L30.4444698,91.6708214 C31.6990865,91.6626376 33.8896347,91.5578103 36.1096074,90.8569405 C36.2306163,91.1215383 36.3503977,91.3970354 36.4688027,91.6830599 C34.9863037,92.1788878 33.8186958,92.9688124 32.9550797,93.7554635 C32.123678,94.5127272 31.5619703,95.2627743 31.233762,95.7634752 C30.3153514,94.676106 29.7587401,93.2787188 29.7582565,91.7484933 Z M35.9996838,97.990181 C34.6107036,97.990181 33.3304938,97.5308083 32.2919299,96.7600041 C32.5126698,96.3964565 32.985955,95.6985255 33.7396104,94.977345 C34.5150273,94.2342913 35.5854337,93.4693646 36.9830069,93.0141582 C37.4580405,94.3457773 37.887877,95.8680049 38.2153042,97.5815108 C37.5255198,97.8441742 36.780197,97.990181 35.9996838,97.990181 Z M39.5321552,96.8818686 C39.2154786,95.3321879 38.8173729,93.9348007 38.3802454,92.6877354 C38.7856048,92.6295931 39.2111263,92.5967834 39.6602692,92.5967834 L39.6764136,92.5967834 L39.6774552,92.5967834 L39.6784968,92.5967834 C40.4229268,92.5967834 41.240974,92.6892977 42.1281372,92.8908801 C41.8210208,94.5412218 40.8651134,95.9625653 39.5321552,96.8818686 Z" id="Dribbble"></path>
                </g>
            </g>
        </g>
    </g>
</svg>