<?xml version="1.0" encoding="UTF-8"?>
<svg width="17px" height="16px" viewBox="0 0 17 16" version="1.1" xmlns="http://www.w3.org/2000/svg" xmlns:xlink="http://www.w3.org/1999/xlink">
    <!-- Generator: Sketch 42 (36781) - http://www.bohemiancoding.com/sketch -->
    <title>Shape</title>
    <desc>Created with Sketch.</desc>
    <defs></defs>
    <g id="texchange" stroke="none" stroke-width="1" fill="none" fill-rule="evenodd">
        <g id="contact" transform="translate(-380.000000, -676.000000)" fill-rule="nonzero" fill="#2E2E2E">
            <g id="Joe" transform="translate(245.000000, 612.000000)">
                <g id="copy" transform="translate(108.000000, 10.761719)">
                    <path d="M42.4268537,57.4047613 C41.7114715,56.1790381 40.7411013,55.2086314 39.5154875,54.4933221 C38.2896914,53.7779764 36.9514874,53.4203948 35.499927,53.4203948 C34.0485491,53.4203948 32.7099073,53.7780859 31.4843665,54.4933221 C30.2586433,55.2085949 29.2883096,56.1790381 28.5729274,57.4047613 C27.8576546,58.630448 27.5,59.9689074 27.5,61.4201029 C27.5,63.163318 28.0085897,64.7308616 29.0260246,66.1231352 C30.0433501,67.5155182 31.3575839,68.478993 32.9686167,69.0136689 C33.1561455,69.0484748 33.2949679,69.023994 33.3852298,68.9408465 C33.4755282,68.8575895 33.5206227,68.7533177 33.5206227,68.6284687 C33.5206227,68.6076363 33.518835,68.4202169 33.515369,68.0659918 C33.5117935,67.7117667 33.5101152,67.4027456 33.5101152,67.1390742 L33.2705235,67.1805203 C33.1177642,67.2085037 32.9250546,67.220361 32.6923949,67.2170045 C32.4598446,67.2137574 32.2184286,67.189386 31.9684754,67.1440726 C31.7184127,67.0991605 31.4858259,66.9949981 31.2705326,66.8318043 C31.0553488,66.6686105 30.9025895,66.4549955 30.8122911,66.1912877 L30.7081287,65.9515865 C30.6386992,65.7920046 30.5293926,65.6147279 30.3800628,65.420413 C30.2307329,65.2259158 30.0797248,65.0940619 29.9269655,65.0246324 L29.8540336,64.9724235 C29.8054366,64.9377271 29.7603421,64.8958797 29.7186407,64.8473192 C29.6769757,64.7987587 29.6457817,64.7501618 29.6249493,64.7014919 C29.6040803,64.6527855 29.6213738,64.6128353 29.6770122,64.5814953 C29.7326506,64.5501554 29.8332011,64.5349415 29.9791014,64.5349415 L30.1873532,64.5660625 C30.3262486,64.5939 30.4980527,64.6770475 30.7029844,64.8160158 C30.9078067,64.9548746 31.0761813,65.1353985 31.2081446,65.3575143 C31.3679454,65.6423099 31.5604726,65.859318 31.7862733,66.0086478 C32.0118916,66.1579776 32.2393706,66.2325148 32.4684913,66.2325148 C32.6976121,66.2325148 32.8955024,66.2151484 33.0622352,66.1805978 C33.2287856,66.1458649 33.3850474,66.093656 33.5309477,66.024263 C33.5934452,65.5587976 33.7636075,65.201216 34.0412887,64.9512627 C33.6455081,64.9096707 33.2896777,64.8470273 32.9736151,64.7637339 C32.6577349,64.680331 32.3313107,64.5449746 31.9945616,64.3572999 C31.65763,64.1698806 31.3781245,63.9371479 31.1559722,63.6595031 C30.9337835,63.3817124 30.7514354,63.0170163 30.6091835,62.5657433 C30.4668587,62.1142878 30.395678,61.5935123 30.395678,61.0032709 C30.395678,60.1628574 30.6700392,59.4476941 31.2186521,58.8573797 C30.9616574,58.2255464 30.9859194,57.5172421 31.291511,56.7325399 C31.4929038,56.6699695 31.7915635,56.7169247 32.1873441,56.8731135 C32.5831977,57.0293754 32.8730281,57.1632359 33.0571274,57.2742208 C33.2412267,57.3851693 33.3887323,57.4791891 33.4998632,57.5554411 C34.1458159,57.3749537 34.8124188,57.2846918 35.4998541,57.2846918 C36.1872894,57.2846918 36.8540381,57.3749537 37.5000274,57.5554411 L37.8958444,57.3055608 C38.1665207,57.138828 38.4861588,56.9860321 38.8539925,56.8471368 C39.2220451,56.7083144 39.5034842,56.670079 39.698018,56.7326494 C40.0103957,57.517388 40.0382332,58.2256558 39.7811655,58.8574892 C40.3297419,59.4478035 40.6042126,60.1631493 40.6042126,61.0033804 C40.6042126,61.5936218 40.5327765,62.116039 40.3906705,62.5709605 C40.2483822,63.025955 40.0644653,63.3902862 39.838847,63.6647204 C39.6129733,63.939118 39.3316801,64.1700265 38.994931,64.3574094 C38.6581088,64.5449382 38.3315753,64.6802945 38.015695,64.7636974 C37.6996689,64.8471003 37.3438385,64.9097802 36.9480579,64.9514451 C37.3090326,65.2638228 37.4895564,65.7569068 37.4895564,66.4304781 L37.4895564,68.6281769 C37.4895564,68.7530258 37.5329726,68.8572612 37.619878,68.9405546 C37.7066739,69.0237021 37.843745,69.048183 38.0312738,69.0133406 C39.6425255,68.4787376 40.9567594,67.5152263 41.9740483,66.1228433 C42.9912278,64.7305698 43.5,63.1630261 43.5,61.419811 C43.4996352,59.9687979 43.1417981,58.630448 42.4268537,57.4047613 Z" id="Shape"></path>
                </g>
            </g>
        </g>
    </g>
</svg>