<?xml version="1.0" encoding="UTF-8"?>
<svg width="22px" height="22px" viewBox="0 0 22 22" version="1.1" xmlns="http://www.w3.org/2000/svg" xmlns:xlink="http://www.w3.org/1999/xlink">
    <!-- Generator: Sketch 42 (36781) - http://www.bohemiancoding.com/sketch -->
    <title>g</title>
    <desc>Created with Sketch.</desc>
    <defs></defs>
    <g id="texchange" stroke="none" stroke-width="1" fill="none" fill-rule="evenodd">
        <g id="login" transform="translate(-330.000000, -506.000000)">
            <g id="buttons" transform="translate(312.000000, 392.000000)">
                <g id="google" transform="translate(0.000000, 95.000000)">
                    <g id="g" transform="translate(18.000000, 19.000000)">
                        <path d="M7.4012763,0.602127296 C9.77869566,-0.219915714 12.4459,-0.202173779 14.8114914,0.66718106 C16.1243946,1.1521273 17.3249322,1.90911654 18.3539645,2.86126708 C18.0109537,3.23384773 17.6383731,3.58277246 17.2835344,3.94352515 C16.6093408,4.61771869 15.9351473,5.29191224 15.2609537,5.96610579 C14.5926742,5.32739611 13.7765451,4.84244988 12.8894483,4.57040687 C11.8485881,4.25696601 10.7249322,4.20965418 9.66041609,4.44029934 C8.41848061,4.70642837 7.2652548,5.35696601 6.37224405,6.26771869 C5.65073867,6.99513805 5.10665265,7.89406278 4.77546985,8.86395525 C3.57493222,7.92954665 2.37439458,7.00105203 1.16794297,6.06664343 C2.43944835,3.52363267 4.72224405,1.51879396 7.4012763,0.602127296 Z" id="Shape" fill="#EA4335"></path>
                        <path d="M0.215792433,8.8225574 C0.410953723,7.86449289 0.730308562,6.93008429 1.17385695,6.05481547 C2.37439458,6.98922407 3.57493222,7.91771869 4.78138383,8.8521273 C4.30826555,10.2300843 4.30826555,11.7618047 4.78138383,13.1338477 C3.5808462,14.0682563 2.38030856,15.0026649 1.17977093,15.9311596 C0.0679429707,13.7607294 -0.269153804,11.2118047 0.215792433,8.8225574 Z" id="Shape" fill="#FBBC05"></path>
                        <path d="M10.9969752,8.934923 L21.3464376,8.934923 C21.6894483,10.868794 21.6125666,12.8854606 21.0684806,14.7779337 C20.5657924,16.5107294 19.6136419,18.1193316 18.2829967,19.3435251 C17.117943,18.4386864 15.9528892,17.5338477 14.7878354,16.629009 C15.9410613,15.8542778 16.7571903,14.6005144 16.9878354,13.2284714 L10.9910613,13.2284714 C10.9969752,11.7972886 10.9969752,10.3661058 10.9969752,8.934923 Z" id="Shape" fill="#4285F4"></path>
                        <path d="M1.16794297,15.9370735 C2.36848061,15.0085789 3.56901824,14.0741703 4.76955587,13.1397617 C5.2308462,14.4940628 6.11794297,15.6946004 7.28891071,16.5166434 C8.02224405,17.0311596 8.86202899,17.3978262 9.73729781,17.5752456 C10.6007387,17.7526649 11.4937494,17.729009 12.3631043,17.5811596 C13.2265451,17.4273961 14.0604161,17.1139553 14.7878354,16.623095 C15.9528892,17.5279337 17.117943,18.4327725 18.2829967,19.3376112 C17.0233193,20.5026649 15.4442871,21.295138 13.7765451,21.6795467 C11.9313838,22.0994391 9.97977093,22.1112671 8.14643759,21.6204069 C6.69159888,21.2359983 5.32546985,20.5440628 4.14858813,19.6037402 C2.91256663,18.6220198 1.88353437,17.3564284 1.16794297,15.9370735 Z" id="Shape" fill="#34A853"></path>
                    </g>
                </g>
            </g>
        </g>
    </g>
</svg>